<?xml version="1.0" encoding="utf-8"?>
<!-- Generator: Adobe Illustrator 21.1.0, SVG Export Plug-In . SVG Version: 6.00 Build 0)  -->
<svg version="1.1" id="_x32_" xmlns="http://www.w3.org/2000/svg" xmlns:xlink="http://www.w3.org/1999/xlink" x="0px" y="0px"
	 viewBox="0 0 512 512" style="enable-background:new 0 0 512 512;" xml:space="preserve">
<style type="text/css">
	.st0{fill:#84316A;stroke:#FFFFFF;stroke-width:13;stroke-miterlimit:10;}
	.st1{fill:#DDDDDD;}
	.st2{fill:#4B4B4B;}
	.st3{fill:none;stroke:#FFFFFF;stroke-width:4;stroke-miterlimit:10;}
	.st4{fill:none;stroke:#000000;stroke-width:3;stroke-miterlimit:10;}
	.st5{fill:none;stroke:#FFFFFF;stroke-width:3;stroke-miterlimit:10;}
</style>
<circle class="st0" cx="257.9" cy="256" r="247"/>
<path class="st1" d="M460.2,163.4c-12.8-28.8-50.2-37.5-83.5-19.3c-12.8,7.1-23.2,17.1-30.3,28.4c-5,8-12,14.4-20,18.7
	c-6,3.3-13.8,7.5-22.3,12.2c0,0.9,0,1.9-0.1,2.9l-0.7,23.7c-0.2,6.9-0.4,13.8-0.6,20.5c19.5-7.5,40.8-7.5,58.7,1.6
	c17.1,8.7,40.3,8.2,61.6-3.5C456.3,230.4,472.9,192.1,460.2,163.4z M412,223.4c-17.9,9.8-37.9,5.7-44.6-9.2
	c-6.6-14.9,2.6-35,20.5-44.9c17.9-9.8,38-5.6,44.6,9.2c1.7,3.7,2.3,7.8,2.1,11.9c0,0,0,0.1,0,0.1c-0.1,2-0.4,4-0.9,6.1
	c0,0.1,0,0.2-0.1,0.2C430.9,207.2,423.2,217.3,412,223.4z"/>
<path class="st2" d="M230.6,239.6l-0.2,0.9l0.4-0.9C230.8,239.7,230.7,239.6,230.6,239.6z"/>
<path class="st1" d="M278.9,258.7c0.4-16.3,1-34.3,1.5-51.1c0.5-17.1,0.9-32.9,1.1-43.9c0.2-9.1,2.8-18.2,7.6-26.3
	c6.9-11.5,11.1-25.3,11.5-39.9c0.7-26-10.7-48-28.2-58.6c-1.3-0.8-2.7-1.6-4.1-2.3c-6.9-3.4-14.7-5-22.9-4.6
	c-31.5,1.7-58,33.9-59,71.7c-0.7,24.3,9.3,45.1,24.9,56.5c19.2,14,29.4,38.1,28.7,63.6l-0.5,15.8l-1.5,51.1l-5,178.7
	c-0.1,1.4,0.7,2.7,1.9,3.5c0.1,0.1,0.2,0.2,0.4,0.2c0.8,0.4,1.6,0.6,2.5,0.5l1.3-0.1c18.5-0.9,36.4-100.4,38.2-162.2
	C277.4,311.3,278.1,287.8,278.9,258.7z M242.5,137.7c-4.1,0.2-8-0.6-11.4-2.3c-0.7-0.3-1.4-0.7-2-1.1c-9.3-5.7-15.4-17.8-15-32.1
	c0.6-20.4,14.3-37.8,30.6-38.7c4.1-0.2,7.9,0.7,11.5,2.4c0.7,0.3,1.4,0.7,2,1.1c9.3,5.7,15.4,17.7,15,32
	C272.5,119.4,258.8,136.8,242.5,137.7z M252,263.3c-0.4-0.2-0.7-0.4-1.1-0.6c-6-3.7-8-11.9-4.5-18.9c3.8-7.4,12.3-10.7,19.2-7.4
	c0.3,0.2,0.7,0.4,1.1,0.6c6,3.7,8,11.9,4.5,18.9C267.5,263.3,258.9,266.7,252,263.3z"/>
<path class="st3" d="M583.9,358.3"/>
<path class="st4" d="M496.9,320.2"/>
<g>
	<path class="st5" d="M25.7,326.1c0,0,100.6-44.4,208.4,3.4c0,0,100.4,36,200.7-16.3c7.9-4.1,15.8-8,23.6-9.4
		c10.1-1.9,22.7-3.3,37.6-2.6"/>
	<path class="st5" d="M26.7,332.3c0,0,100.6-44.4,208.4,3.4c0,0,100.4,36,200.7-16.3c7.9-4.1,15.8-8,23.6-9.4
		c10.1-1.9,22.7-3.3,37.6-2.6"/>
	<path class="st5" d="M30.6,337.8c17.1-6.7,108.4-38.5,205.5,4.6c0,0,100.4,36,200.7-16.3c7.9-4.1,15.8-8,23.6-9.4
		c8.8-1.6,19.5-2.9,32-2.7"/>
	<path class="st5" d="M32.6,343.5c19.8-7.5,109.3-37.1,204.3,5c0,0,100.4,36,200.7-16.3c7.9-4.1,15.8-8,23.6-9.4
		c8.6-1.6,19-2.9,31.2-2.7"/>
	<path class="st5" d="M35.1,349.1c22.5-8.3,110-35.6,202.8,5.6c0,0,100.4,36,200.7-16.3c7.9-4.1,15.8-8,23.6-9.4
		c8-1.5,17.7-2.7,28.8-2.7"/>
	<path class="st5" d="M37.9,355.2c25-9,110.5-33.9,201.1,6.2c0,0,100.4,36,200.7-16.3c7.9-4.1,15.8-8,23.6-9.4
		c7.6-1.4,16.5-2.6,26.8-2.7"/>
	<path class="st5" d="M40.7,361.5c26-9.2,110.7-33.2,200.2,6.5c0,0,100.4,36,200.7-16.3c7.9-4.1,15.8-8,23.6-9.4
		c5.9-1.1,12.6-2,20.1-2.5"/>
	<path class="st5" d="M44.3,366.8c28.7-9.7,110.9-31.1,197.7,7.4c0,0,100.4,36,200.7-16.3c7.9-4.1,15.8-8,23.6-9.4
		c4.7-0.9,9.9-1.6,15.7-2.1"/>
	<path class="st5" d="M46.2,373.2c29.4-9.9,110.9-30.4,196.8,7.7c0,0,100.4,36,200.7-16.3c7.9-4.1,15.8-8,23.6-9.4
		c3.8-0.7,7.8-1.3,12.3-1.8"/>
</g>
<path class="st1" d="M215.1,263.9l0.4-11.9c0,0,0,0,0,0l0-0.1c-11.3,6.1-18.5,10.1-18.5,10.1c-54.2,29.7-134.6,90.8-127,107.8
	l0.5,1.2c1.1,2.6,3.8,3.6,5.9,2.4l137.9-75.5l0.2-5.9L215.1,263.9z"/>
</svg>
